<?xml version="1.0" encoding="utf-8"?>
<!-- Generator: Adobe Illustrator 27.2.0, SVG Export Plug-In . SVG Version: 6.00 Build 0)  -->
<svg version="1.1" id="Layer_1" xmlns="http://www.w3.org/2000/svg" xmlns:xlink="http://www.w3.org/1999/xlink" x="0px" y="0px"
	 viewBox="0 0 150 150" style="enable-background:new 0 0 150 150;" xml:space="preserve">
<style type="text/css">
	.st0{fill:#FFFFFF;}
</style>
<path d="M112.43,63.07c-0.23,1.55-0.5,3.1-0.7,4.65c-0.53,4.17-1.05,8.33-1.55,12.5c-0.43,3.56-0.85,7.12-1.28,10.68
	c-0.43,3.53-0.89,7.06-1.33,10.59c-0.43,3.5-0.86,7.01-1.29,10.51c-0.43,3.56-0.85,7.12-1.31,10.68c-0.24,1.85-0.34,3.74-0.87,5.51
	c-1.81,6.04-5.9,9.62-12.14,10.67c-0.74,0.13-1.51,0.17-2.26,0.17c-10.85,0.01-21.7-0.05-32.55,0.03
	c-7.01,0.05-13.2-4.5-14.78-11.51c-0.53-2.35-0.67-4.79-0.98-7.19c-0.52-4.05-1.03-8.1-1.53-12.15c-0.5-4.05-0.97-8.11-1.46-12.16
	c-0.44-3.56-0.91-7.12-1.35-10.68c-0.44-3.53-0.84-7.07-1.28-10.6c-0.44-3.56-0.94-7.11-1.31-10.68c-0.11-1.04-0.03-2.17,0.3-3.15
	c0.41-1.21,1.52-1.79,2.8-1.92c0.41-0.04,0.82-0.05,1.23-0.05c22.87,0,45.74,0,68.6,0c0.53,0,1.05,0.02,1.58,0.05
	c1.55,0.08,2.84,1.12,3.26,2.6c0.05,0.19,0.14,0.37,0.21,0.55C112.43,62.48,112.43,62.77,112.43,63.07z M42.01,66.24
	c0,0.2-0.01,0.34,0,0.48c0.48,3.94,0.97,7.88,1.45,11.82c0.5,4.11,1,8.23,1.5,12.34c0.43,3.53,0.88,7.07,1.31,10.6
	c0.5,4.08,1,8.17,1.5,12.25c0.43,3.53,0.95,7.06,1.29,10.61c0.45,4.64,3.54,7.56,8.23,7.56c4.18,0,8.36,0,12.54,0
	c6.61,0,13.22,0.01,19.82-0.01c4.05-0.01,7.2-2.6,7.78-6.55c0.64-4.39,1.12-8.8,1.65-13.21c0.56-4.61,1.09-9.22,1.66-13.82
	c0.55-4.52,1.13-9.03,1.69-13.55c0.51-4.08,1.01-8.17,1.51-12.25c0.26-2.07,0.51-4.15,0.76-6.27C83.76,66.24,62.9,66.24,42.01,66.24
	z"/>
<path d="M111.76,31.28c-0.27-1.22-0.57-2.44-0.95-3.63c-2.3-7.19-8.97-11.22-16.34-9.64c-4.03,0.87-7.98,2.13-11.96,3.23
	c-1.18,0.32-1.17,0.34-1.49-0.85c-1.49-5.58-6.94-8.72-12.49-7.2c-3.51,0.96-7.03,1.88-10.53,2.88c-3.27,0.94-5.53,3.05-6.73,6.24
	c-0.77,2.06-0.78,4.17-0.19,6.28c0.32,1.17,0.31,1.17-0.78,1.47c-3.7,1.01-7.41,2.01-11.11,3.03c-6.21,1.72-10.45,7.12-10.44,13.31
	c0,1.88,0.79,5.82,1.5,7.51c0.69,1.64,2.42,2.58,4.13,2.11c6.85-1.85,13.7-3.73,20.55-5.61c12.99-3.56,25.98-7.12,38.97-10.69
	c5.11-1.4,10.21-2.79,15.31-4.21C111.16,34.98,112.2,33.24,111.76,31.28z M60.59,22.79c0.79-0.22,1.57-0.45,2.36-0.67
	c2.3-0.63,4.6-1.27,6.91-1.89c2.51-0.68,3.72,0.03,4.38,2.55c0.04,0.17,0.09,0.33,0.17,0.61l-16.03,4.39
	C57.23,25.13,57.96,23.54,60.59,22.79z M36.08,48.17c-0.44-2.12-0.06-3.99,1.19-5.67c0.94-1.26,2.2-2.06,3.72-2.47
	c8.14-2.21,16.29-4.43,24.43-6.67c10.02-2.75,20.03-5.52,30.05-8.28c3.66-1.01,7.5,1.02,8.36,4.51
	C81.29,35.78,58.74,41.96,36.08,48.17z"/>
<path class="st0" d="M85.27,121.87c-0.02,1.21,1.12,2.5,2.58,2.56c1.49,0.06,2.68-1.11,2.81-2.77c0.36-4.78,0.72-9.55,1.1-14.33
	c0.44-5.56,0.9-11.12,1.35-16.68c0.4-4.92,0.77-9.84,1.18-14.76c0.13-1.61-0.92-2.98-2.48-3.15c-1.44-0.16-2.77,1.09-2.89,2.67
	c-0.24,3.26-0.49,6.52-0.74,9.79c-0.45,5.74-0.91,11.47-1.38,17.2c-0.26,3.2-0.54,6.4-0.79,9.6
	C85.76,115.18,85.53,118.35,85.27,121.87z M52.17,76.18c0.08,0.03,0.15,0.06,0.23,0.08c0.31,3.96,0.63,7.92,0.94,11.88
	c0.36,4.63,0.71,9.26,1.07,13.89c0.39,5.01,0.79,10.01,1.19,15.02c0.13,1.6,0.24,3.2,0.4,4.8c0.11,1.09,0.65,1.94,1.7,2.36
	c1.02,0.41,1.97,0.19,2.78-0.51c0.92-0.8,0.92-1.88,0.83-2.99c-0.41-4.95-0.79-9.89-1.18-14.84c-0.31-4.02-0.61-8.04-0.92-12.06
	c-0.32-4.1-0.67-8.21-1-12.31c-0.17-2.12-0.31-4.25-0.53-6.37c-0.12-1.15-0.82-1.89-1.92-2.26c-1.12-0.37-2.12-0.02-2.73,0.86
	C52.55,74.41,52.45,75.36,52.17,76.18z M75.99,98.59c0-7.49,0-14.97,0-22.46c0-0.35,0.01-0.7-0.03-1.05
	c-0.19-1.64-1.84-2.69-3.41-2.19c-1.27,0.41-1.89,1.38-1.89,3c0,15.12,0,30.24,0,45.35c0,0.29,0,0.59,0.04,0.88
	c0.21,1.51,1.73,2.55,3.21,2.2c1.37-0.32,2.09-1.31,2.09-2.92C75.99,113.8,75.99,106.19,75.99,98.59z"/>
<path d="M85.27,121.87c0.26-3.51,0.49-6.69,0.74-9.87c0.25-3.2,0.54-6.4,0.79-9.6c0.46-5.73,0.92-11.47,1.38-17.2
	c0.26-3.26,0.5-6.52,0.74-9.79c0.12-1.57,1.45-2.82,2.89-2.67c1.56,0.17,2.61,1.55,2.48,3.15c-0.41,4.92-0.79,9.84-1.18,14.76
	c-0.45,5.56-0.91,11.12-1.35,16.68c-0.38,4.77-0.74,9.55-1.1,14.33c-0.13,1.66-1.32,2.83-2.81,2.77
	C86.39,124.37,85.25,123.07,85.27,121.87z"/>
<path d="M52.17,76.18c0.27-0.83,0.38-1.77,0.86-2.46c0.61-0.87,1.6-1.23,2.73-0.86c1.1,0.37,1.8,1.11,1.92,2.26
	c0.22,2.12,0.36,4.25,0.53,6.37c0.33,4.1,0.68,8.21,1,12.31c0.32,4.02,0.61,8.04,0.92,12.06c0.39,4.95,0.78,9.9,1.18,14.84
	c0.09,1.11,0.09,2.19-0.83,2.99c-0.81,0.7-1.76,0.92-2.78,0.51c-1.05-0.42-1.59-1.27-1.7-2.36c-0.16-1.6-0.28-3.2-0.4-4.8
	c-0.4-5.01-0.8-10.01-1.19-15.02c-0.36-4.63-0.71-9.26-1.07-13.89c-0.31-3.96-0.63-7.92-0.94-11.88
	C52.32,76.24,52.25,76.21,52.17,76.18z"/>
<path d="M75.99,98.59c0,7.6,0,15.21,0,22.81c0,1.62-0.72,2.6-2.09,2.92c-1.48,0.34-3-0.69-3.21-2.2c-0.04-0.29-0.04-0.58-0.04-0.88
	c0-15.12,0-30.24,0-45.35c0-1.63,0.62-2.6,1.89-3c1.57-0.5,3.22,0.56,3.41,2.19c0.04,0.35,0.03,0.7,0.03,1.05
	C75.99,83.62,75.99,91.1,75.99,98.59z"/>
</svg>
